<svg width="105" height="99" viewBox="0 0 105 99" fill="none" xmlns="http://www.w3.org/2000/svg">
<rect width="105" height="99" rx="5" fill="#D9D9D9"/>
<path d="M19.053 74V27.28H33.389C37.869 27.28 41.4317 28.368 44.077 30.544C46.765 32.72 48.109 35.6427 48.109 39.312C48.109 41.872 47.3623 44.0693 45.869 45.904C44.4183 47.7387 42.5197 48.848 40.173 49.232V49.36C41.9223 49.5733 43.4797 50.2133 44.845 51.28C46.2103 52.304 47.277 53.648 48.045 55.312C48.813 56.9333 49.197 58.7253 49.197 60.688C49.197 63.376 48.5783 65.7227 47.341 67.728C46.1037 69.7333 44.3543 71.2907 42.093 72.4C39.8317 73.4667 37.165 74 34.093 74H19.053ZM26.861 46.544H33.261C35.3517 46.544 37.0157 45.9893 38.253 44.88C39.4903 43.728 40.109 42.1707 40.109 40.208C40.109 38.288 39.4903 36.7733 38.253 35.664C37.0583 34.512 35.3943 33.936 33.261 33.936H26.861V46.544ZM26.861 67.344H33.645C35.9917 67.344 37.8263 66.7253 39.149 65.488C40.5143 64.208 41.197 62.48 41.197 60.304C41.197 58.128 40.5143 56.3787 39.149 55.056C37.8263 53.6907 35.9917 53.008 33.645 53.008H26.861V67.344ZM57.428 74V27.28H72.148C75.2627 27.28 77.9507 27.856 80.212 29.008C82.516 30.16 84.308 31.7813 85.588 33.872C86.868 35.92 87.508 38.352 87.508 41.168C87.508 44.2827 86.74 47.0133 85.204 49.36C83.668 51.664 81.5987 53.3067 78.996 54.288L88.148 74H79.38L71.188 55.44H65.364V74H57.428ZM65.364 48.4H72.148C74.4093 48.4 76.18 47.7813 77.46 46.544C78.74 45.3067 79.38 43.6 79.38 41.424C79.38 39.248 78.7187 37.52 77.396 36.24C76.116 34.96 74.3667 34.32 72.148 34.32H65.364V48.4Z" fill="#3A3A3A"/>
</svg>
